PathFileType	4	(X/Y/Z)	..\data\2014025\dynamic\2014025_C4_04.trc
DataRate	CameraRate	NumFrames	NumMarkers	Units	OrigDataRate	OrigDataStartFrame	OrigNumFrames
100.000000	100.000000	4	52	mm	100.000000	0	152
Frame#	Time	L_IAS			L_IPS			R_IPS			R_IAS			L_FTC			L_FLE			L_FME			L_FAX			L_TTC			L_FAL			L_TAM			L_FCC			L_FM1			L_FM2			L_FM5			R_FTC			R_FLE			R_FME			R_FAX			R_TTC			R_FAL			R_TAM			R_FCC			R_FM1			R_FM2			R_FM5			CV7			TV10			SXS			SJN			L_SIA			L_SRS			L_SAA			L_SAE			L_HLE			L_HME			L_UOA			L_RSP			L_UHE			L_HM2			L_HM5			R_SIA			R_SRS			R_SAA			R_SAE			R_HLE			R_HME			R_UOA			R_RSP			R_UHE			R_HM2			R_HM5			
		X1	Y1	Z1	X2	Y2	Z2	X3	Y3	Z3	X4	Y4	Z4	X5	Y5	Z5	X6	Y6	Z6	X7	Y7	Z7	X8	Y8	Z8	X9	Y9	Z9	X10	Y10	Z10	X11	Y11	Z11	X12	Y12	Z12	X13	Y13	Z13	X14	Y14	Z14	X15	Y15	Z15	X16	Y16	Z16	X17	Y17	Z17	X18	Y18	Z18	X19	Y19	Z19	X20	Y20	Z20	X21	Y21	Z21	X22	Y22	Z22	X23	Y23	Z23	X24	Y24	Z24	X25	Y25	Z25	X26	Y26	Z26	X27	Y27	Z27	X28	Y28	Z28	X29	Y29	Z29	X30	Y30	Z30	X31	Y31	Z31	X32	Y32	Z32	X33	Y33	Z33	X34	Y34	Z34	X35	Y35	Z35	X36	Y36	Z36	X37	Y37	Z37	X38	Y38	Z38	X39	Y39	Z39	X40	Y40	Z40	X41	Y41	Z41	X42	Y42	Z42	X43	Y43	Z43	X44	Y44	Z44	X45	Y45	Z45	X46	Y46	Z46	X47	Y47	Z47	X48	Y48	Z48	X49	Y49	Z49	X50	Y50	Z50	X51	Y51	Z51	X52	Y52	Z52	

1	0	-242.4234924316407	857.489929199219	-437.577606201172	-462.2185058593751	936.5549316406252	-339.2005615234376	-454.8916320800782	919.3570556640627	-224.8687744140626	-224.2067565917969	873.0818481445315	-160.0246124267578	-355.5820922851563	820.0235595703127	-512.4264526367189	-436.5935974121095	450.1982727050782	-446.3835449218751	-446.6507873535157	435.6775817871095	-285.5113830566407	-480.1917724609376	408.5071105957032	-446.986053466797	-434.6138305664064	354.3880920410157	-392.2273254394532	-621.8977050781251	82.50001525878908	-403.4909667968751	-606.4920654296876	86.89556884765626	-315.8892822265626	-674.8126831054689	46.76520156860352	-353.5435180664063	-487.4763488769532	14.37384605407715	-310.4579162597657	-480.0816040039064	32.23616790771485	-368.8998718261719	-526.2291870117189	15.59651184082032	-418.1001281738282	-302.6359558105469	791.5457763671877	-78.88742065429689	-138.5957794189453	459.9759216308595	-136.9836883544922	-137.9243774414063	455.0709533691407	-307.0351562500001	-138.8440093994141	387.1468200683595	-136.2051086425782	-56.95190811157228	410.7246093750001	-197.1969909667969	2.138524293899537	83.48080444335939	-178.5413665771485	27.99531555175782	106.6695251464844	-264.1294250488282	-2.895442724227906	22.50430679321289	-247.2577514648438	165.9076538085938	101.6906280517578	-236.1116485595704	147.100082397461	118.0392837524414	-184.9759368896485	116.865234375	75.80184173583986	-142.8097076416016	-375.1549987792969	1379.215698242188	-312.1146850585938	-449.7294311523439	1156.652954101563	-317.8342895507813	-198.6655426025391	1150.18505859375	-294.3198852539063	-261.4851684570313	1296.01220703125	-297.4631347656251	-440.984832763672	1199.13671875	-424.8898315429689	-402.7783203125001	1331.412109375	-405.9554443359376	-346.5082092285157	1334.813354492188	-476.6090087890626	-292.5457763671876	1340.310546875	-489.1123046875001	-248.368637084961	1030.858520507813	-575.4603881835939	-282.5855712890626	998.0266723632815	-495.4694213867189	-275.9188232421876	997.5793457031252	-541.1824951171876	-79.9952850341797	855.9044189453127	-525.7573852539064	-121.7174148559571	826.0079345703127	-586.2423706054689	-20.18614387512207	802.0970458984377	-531.8524780273439	-83.68615722656251	765.8088989257814	-591.8176269531251	-468.7265930175782	1184.45068359375	-223.7075500488282	-424.095672607422	1317.67041015625	-228.9329986572266	-386.9699096679689	1323.842407226563	-157.1107635498047	-341.4222106933594	1325.957153320313	-131.3355102539063	-428.434539794922	1024.761108398438	-44.42046356201173	-422.9913940429689	998.0195312500002	-129.7935333251953	-440.3264465332032	999.0830688476565	-80.08918762207033	-368.3832092285157	782.9190673828127	2.353847980499268	-431.2533569335939	794.1719360351565	29.66126441955567	-375.1357116699219	707.4206542968751	27.63703727722169	-467.1965332031251	747.9199829101564	29.31968879699708	
2	0.01	-228.5555114746094	855.5132446289065	-437.9466247558595	-447.5760803222657	934.6851196289065	-335.9149169921876	-438.6341552734376	916.4866333007815	-221.8125000000001	-208.1424102783204	871.8353271484377	-160.1703186035157	-342.6642761230469	818.835388183594	-511.0374145507814	-425.7851562500001	449.1713256835939	-446.9593200683595	-434.6271362304689	433.8203430175782	-285.9895019531251	-470.2083740234376	408.2078247070314	-447.4234619140626	-425.4456176757814	352.6727905273438	-393.149627685547	-620.3933105468751	85.79351043701173	-404.5586547851564	-604.6180419921876	89.76371002197267	-316.9421997070313	-674.1774902343751	51.3962860107422	-354.2940063476563	-487.803192138672	14.56908130645752	-310.4065856933594	-480.1366577148439	32.29420852661134	-368.6984558105469	-526.3339843750001	15.33937740325928	-417.9084777832032	-284.3625488281251	789.737243652344	-77.90610504150392	-120.1629714965821	459.5379943847657	-137.2642822265625	-121.7931289672852	454.0547180175782	-307.0986328125001	-121.1277313232422	386.1007385253907	-136.2783203125	-39.77692031860352	409.8906860351564	-197.9386901855469	18.18692779541016	82.81113433837892	-179.3179321289063	43.83939361572266	105.4297027587891	-265.1177062988282	12.44996166229248	21.94676399230957	-247.8340301513672	181.7957916259766	99.58943939208987	-236.9898681640626	163.1445617675782	116.2454147338867	-185.9006500244141	132.5840301513672	74.36637115478517	-143.9088287353516	-359.6668395996094	1377.025756835938	-310.6627807617188	-434.706756591797	1154.534057617188	-316.7848510742188	-183.4273529052735	1147.6328125	-293.6770935058594	-245.8147888183594	1293.490112304688	-296.1505126953126	-425.7037963867189	1197.44091796875	-423.9527587890626	-387.0802001953126	1329.679077148438	-404.794403076172	-330.6034545898438	1332.977661132813	-475.3667602539064	-276.6948242187501	1338.470825195313	-487.690399169922	-229.6778411865235	1029.783813476563	-574.6680297851564	-263.7810058593751	996.1677856445315	-494.795867919922	-257.1479187011719	996.0122680664065	-540.5636596679689	-60.04648590087892	856.1286621093752	-524.7291259765626	-101.1871185302735	826.1085205078127	-585.5643920898439	0.6898082494735719	803.7001953125002	-531.4607543945314	-62.03236389160158	766.7518920898439	-591.7998046875001	-453.6793212890626	1182.128051757813	-222.7751922607422	-408.7330932617189	1315.260986328125	-227.6986694335938	-371.7316284179688	1321.109130859375	-155.8163757324219	-326.3275756835938	1323.045288085938	-129.9063568115235	-416.2418823242189	1022.356018066406	-44.6223487854004	-408.6608886718751	995.2329101562502	-129.7876892089844	-427.2456970214845	996.7749633789065	-80.36158752441408	-359.4203491210938	779.9863891601565	3.960548877716065	-422.374969482422	792.0666503906252	30.05621719360352	-368.2738952636719	704.2955932617189	29.09544181823731	-459.034149169922	746.7541503906251	29.03426933288575	
3	0.02	-214.2597198486329	853.6983642578127	-437.9426269531251	-432.5587158203126	932.8254394531252	-333.0565490722657	-422.221160888672	913.996765136719	-219.1329803466797	-191.783432006836	870.9929199218752	-160.0634765625	-329.5029296875001	817.6541748046877	-509.4070434570314	-414.1865539550782	448.0988769531251	-447.691131591797	-421.7230224609376	431.7301330566407	-286.6991577148438	-459.4267578125001	407.8555603027345	-448.0040283203126	-415.5342407226564	350.8462524414063	-394.3130187988282	-618.4584960937501	89.53917694091798	-405.6728820800782	-602.1580200195314	93.06776428222658	-318.1297302246094	-673.0466918945314	56.84872817993165	-354.9761962890626	-488.2583007812501	14.76747131347657	-310.3240661621094	-480.3962402343751	32.26545333862305	-368.4828186035157	-526.6441040039064	15.03541946411133	-417.6376342773439	-266.1251220703126	788.3875732421877	-76.86501312255861	-101.576156616211	459.4281005859376	-137.6035308837891	-104.9049758911133	453.714080810547	-307.0226135253907	-103.6202087402344	385.3576049804689	-136.4696655273438	-22.68958282470703	408.8997802734376	-198.7011260986329	31.52692794799805	81.58895874023439	-180.3474731445313	57.14229583740236	103.3577957153321	-266.3385620117188	24.46245193481446	21.05622482299805	-248.5459289550782	194.9376983642579	95.45621490478517	-238.0177917480469	176.5830993652344	112.5367660522461	-186.9417419433594	145.292724609375	71.39916229248048	-145.2055053710938	-343.9930114746094	1375.042846679688	-309.0066833496094	-419.4097290039064	1152.645141601563	-315.5385437011719	-167.9154510498047	1145.416870117188	-292.8562316894532	-229.9752807617188	1291.248413085938	-294.7045593261719	-410.2460937500001	1195.939208984375	-422.7635803222657	-371.2835693359376	1328.127685546875	-403.3675842285157	-314.6762390136719	1331.400024414063	-473.9089355468751	-260.8388977050782	1336.94140625	-486.113983154297	-211.2823333740235	1029.01904296875	-573.6707763671876	-245.1383361816407	994.7507324218752	-493.790496826172	-238.6407775878907	994.8156738281252	-539.6995239257814	-40.57569122314454	856.3897705078127	-523.6529541015626	-81.22512817382814	826.3775634765627	-584.8381958007814	20.93417549133301	805.1391601562502	-531.0708007812501	-41.17621994018555	767.7826538085939	-591.7540893554689	-438.2902221679689	1180.050659179688	-221.5721282958985	-393.0609130859376	1313.097412109375	-226.2264404296876	-356.1106262207032	1318.676391601563	-154.3267517089844	-310.8108520507813	1320.441284179688	-128.3277282714844	-403.5342407226564	1020.266540527344	-44.6687355041504	-393.9844665527345	992.8319091796877	-129.6423492431641	-413.7233276367189	994.7608032226565	-80.46107482910158	-349.7233886718751	777.3999633789065	5.391923427581788	-412.6782226562501	790.2147216796877	30.40050506591798	-360.6154785156251	701.4683227539064	30.17310905456544	-450.0125122070314	745.8344726562501	28.6702003479004	
4	0.03	-199.5132293701172	852.0374145507815	-437.5455627441407	-417.1609802246095	930.966979980469	-330.7035522460938	-405.714569091797	911.927429199219	-216.8936309814454	-175.1545715332032	870.5402832031252	-159.6712646484375	-316.0776672363282	816.4421386718752	-507.5413818359376	-401.6802978515626	446.9436645507814	-448.6050109863282	-407.8023376464845	429.3720092773439	-287.6912841796876	-447.7206420898439	407.4148559570314	-448.7587280273439	-404.7594604492189	348.8849182128907	-395.7739257812501	-615.9473266601564	93.7699661254883	-406.784637451172	-598.9468383789064	96.81740570068362	-319.4137573242188	-671.2166748046876	63.20263671875001	-355.5357666015626	-488.8126525878907	14.9669303894043	-310.2314147949219	-480.8679809570314	32.12774658203126	-368.2801208496094	-527.1686401367189	14.74670124053955	-417.2841186523439	-247.9767761230469	787.5556640625002	-75.74864959716798	-82.93420410156251	459.6074523925782	-137.9552154541016	-87.3761672973633	454.0154724121095	-306.8080139160157	-86.29249572753908	384.9454040527345	-136.7285614013672	-5.711007118225099	407.8085937500001	-199.489486694336	42.49167251586915	79.93099975585939	-181.5487670898438	68.17038726806642	100.6190567016602	-267.7223205566407	33.49907302856446	19.94609451293946	-249.3079681396485	205.6175689697266	89.55179595947267	-239.2250061035157	187.7469329833985	107.1504058837891	-188.1091461181641	155.3763122558594	67.11380767822267	-146.6595916748047	-328.1463623046876	1373.28955078125	-307.1489562988282	-403.8499755859376	1151.0087890625	-314.1117553710938	-152.1222381591797	1143.566650390625	-291.8475036621094	-213.9759063720704	1289.317749023438	-293.1255493164063	-394.611053466797	1194.6484375	-421.3433227539064	-355.3995361328126	1326.780151367188	-401.6819458007814	-298.7360229492188	1330.096557617188	-472.2424621582032	-244.9718780517579	1335.728637695313	-484.3870239257814	-193.2162322998047	1028.548950195313	-572.4852294921876	-226.7116394042969	993.765319824219	-492.490692138672	-220.4449920654297	993.9857177734377	-538.6178588867189	-21.58525848388672	856.7190551757815	-522.5519409179689	-61.84083175659181	826.8079833984377	-584.0668945312501	40.54250717163087	806.4268798828127	-530.6563110351564	-21.12277984619141	768.8736572265627	-591.6429443359376	-422.5606079101564	1178.230102539063	-220.1084442138672	-377.0819396972657	1311.19287109375	-224.5125427246094	-340.1170959472657	1316.556396484375	-152.6341247558594	-294.8771057128907	1318.158081054688	-126.5938491821289	-390.2717285156251	1018.496826171875	-44.5251693725586	-378.9947204589844	990.8347167968752	-129.3342437744141	-399.7534484863282	993.0564575195315	-80.3678665161133	-339.2229919433594	775.180847167969	6.659113407135012	-402.1258239746095	788.6142578125002	30.71904563903809	-352.0483703613282	698.9619140625001	30.89932250976563	-440.0891723632814	745.1361083984376	28.26261901855469	
